<svg xmlns="http://www.w3.org/2000/svg" width="85" height="74" fill="none"><path fill="#F37D2F" d="M0 36.661h19.466l-.063 1.142-.067 1.142-.063 1.142-.067 1.142-.063 1.142-.068 1.141-.063 1.142-.063 1.146-.067 1.142-.063 1.142-.068 1.142-.063 1.142-.067 1.141-.063 1.142-.067 1.142-.064 1.142-.067 1.142-.063 1.141-.067 1.142-.063 1.142-.068 1.142-.063 1.142-.067 1.141-.063 1.142-.067 1.142-.063 1.142-.064 1.142-.067 1.141-.063 1.142-.067 1.142-.063 1.142-.068 1.142h2.776l.48-1.155.475-1.15.476-1.15.475-1.155.48-1.15.475-1.15.475-1.155.48-1.15.475-1.155.475-1.15.476-1.151.479-1.154.475-1.15.476-1.151.475-1.155.48-1.15.475-1.155.475-1.15.475-1.15.48-1.155.475-1.15.475-1.15.48-1.155.475-1.15.476-1.155.475-1.15.48-1.151.475-1.154.475-1.15.475-1.151.48-1.155.475-1.15V.796H0v35.865ZM49.592.796v35.865h19.466l-.063 1.142-.063 1.142-.067 1.142-.063 1.142-.068 1.142-.063 1.141-.067 1.142-.063 1.146-.067 1.142-.064 1.142-.067 1.142-.063 1.142-.067 1.141-.063 1.142-.068 1.142-.063 1.142-.067 1.142-.063 1.141-.067 1.142-.064 1.142-.063 1.142-.067 1.142-.063 1.141-.067 1.142-.063 1.142-.068 1.142-.063 1.142-.067 1.141-.063 1.142-.067 1.142-.064 1.142-.067 1.142h2.776l.48-1.155.475-1.15.475-1.15.48-1.155.475-1.15.475-1.15.476-1.155.48-1.15.475-1.155.475-1.15.475-1.151.48-1.154.475-1.15.475-1.151.476-1.155.48-1.15.474-1.155.476-1.15.48-1.15.475-1.155.475-1.15.475-1.15.48-1.155.475-1.15.475-1.155.476-1.15.48-1.151.474-1.154.476-1.15.475-1.151.48-1.155.475-1.15V.796H49.592Z" opacity=".3"/></svg>